<svg xmlns="http://www.w3.org/2000/svg" xmlns:xlink="http://www.w3.org/1999/xlink" viewBox="0 0 421.14 479.82"><defs><style>.cls-1{fill:#ff7235;}.cls-2{fill:none;}.cls-3{opacity:0.8;}.cls-4{mask:url(#mask);}.cls-5{clip-path:url(#clip-path);}.cls-6{fill-rule:evenodd;fill:url(#Безымянный_градиент_2);}</style><mask id="mask" x="-1018.86" y="-220" width="1622.15" height="970" maskUnits="userSpaceOnUse"><g id="mask0_40_94" data-name="mask0 40 94"><rect class="cls-1" x="-1018.86" width="1440" height="750"/></g></mask><clipPath id="clip-path"><rect class="cls-2" width="421.14" height="479.82"/></clipPath><linearGradient id="Безымянный_градиент_2" x1="304.22" y1="276.05" x2="304.22" y2="972.39" gradientTransform="matrix(1, 0, 0, -1, 0, 752.39)" gradientUnits="userSpaceOnUse"><stop offset="0" stop-color="#ff7235" stop-opacity="0.4"/><stop offset="1" stop-color="#fff" stop-opacity="0.4"/></linearGradient></defs><g id="Слой_2" data-name="Слой 2"><g id="Слой_1-2" data-name="Слой 1"><g class="cls-3"><g class="cls-4"><g class="cls-5"><path class="cls-6" d="M303.34,475.6c-89.95-5.26-171.58-53.07-229.63-122C20.33,290.27,10.3,206.79,7.11,124,3.74,36.51-2-57.88,55.31-124c60.19-69.4,157-106,248-93.58,83.37,11.39,134.19,88.84,188.4,153.19C539.31-8,579.77,51.06,591.16,124c13.9,89,27.37,188.48-29.67,258.16C501.23,455.77,398.31,481.16,303.34,475.6Z"/></g></g></g></g></g></svg>